/* XPM */
static const char *ExwordLibrary_xpm[] = {
/* columns rows colors chars-per-pixel */
"48 48 256 2 ",
"   c #000000",
".  c #070A06",
"X  c #011800",
"o  c #08130A",
"O  c #121B14",
"+  c #151606",
"@  c #301F00",
"#  c #012C0D",
"$  c #002409",
"%  c #023E01",
"&  c #062F11",
"*  c #192C1E",
"=  c #083113",
"-  c #342700",
";  c #2F3B0B",
":  c #1E3323",
">  c #283428",
",  c #483804",
"<  c #573D01",
"1  c #462E00",
"2  c #014900",
"3  c #014500",
"4  c #025D01",
"5  c #055704",
"6  c #184C1A",
"7  c #0E541C",
"8  c #2A491A",
"9  c #304010",
"0  c #036501",
"q  c #036B01",
"w  c #0A6009",
"e  c #047301",
"r  c #047C01",
"t  c #166114",
"y  c #00761E",
"u  c #0D6D19",
"i  c #1F5825",
"p  c #2A5032",
"a  c #017E21",
"s  c #166F2D",
"d  c #247A22",
"f  c #237629",
"g  c #2B7134",
"h  c #2C751B",
"j  c #4F4107",
"k  c #7A5001",
"l  c #6F4B00",
"z  c #6C6B00",
"x  c #43413B",
"c  c #375D41",
"v  c #3C6647",
"b  c #457651",
"n  c #4C744B",
"m  c #845500",
"M  c #8E5C00",
"N  c #885E0B",
"B  c #9B6500",
"V  c #A76D00",
"C  c #AB7100",
"Z  c #B67900",
"A  c #857654",
"S  c #038400",
"D  c #048C01",
"F  c #049401",
"G  c #049C00",
"H  c #089B04",
"J  c #158E16",
"K  c #04A401",
"L  c #04AA00",
"P  c #09A806",
"I  c #04B500",
"U  c #08B604",
"Y  c #10BA0E",
"T  c #19B819",
"R  c #038224",
"E  c #0A8429",
"W  c #0D892D",
"Q  c #009928",
"!  c #128E32",
"~  c #199439",
"^  c #258822",
"/  c #259722",
"(  c #218C3C",
")  c #02A42B",
"_  c #01A92D",
"`  c #00B22E",
"'  c #0BAB35",
"]  c #07AA31",
"[  c #14AD3B",
"{  c #05B533",
"}  c #09B836",
"|  c #0DBA3A",
" . c #0BB337",
".. c #12BD3E",
"X. c #13B43C",
"o. c #25A722",
"O. c #25BE22",
"+. c #25B322",
"@. c #34B137",
"#. c #75A51D",
"$. c #3DC63A",
"%. c #289745",
"&. c #309D4B",
"*. c #15BF41",
"=. c #1CB945",
"-. c #1EA441",
";. c #28A749",
":. c #25B74B",
">. c #36AA55",
",. c #2DB952",
"<. c #3BB85B",
"1. c #32A14F",
"2. c #56875D",
"3. c #5A9A6A",
"4. c #559365",
"5. c #43BA63",
"6. c #53B26C",
"7. c #64AA77",
"8. c #6AB47D",
"9. c #16C142",
"0. c #1AC346",
"q. c #1EC549",
"w. c #21C74C",
"e. c #23C94E",
"r. c #26CA50",
"t. c #2BCD55",
"y. c #2FC055",
"u. c #34C65A",
"i. c #2ED058",
"p. c #33D35D",
"a. c #3BC543",
"s. c #3DCA61",
"d. c #37D660",
"f. c #39D662",
"g. c #3CD965",
"h. c #41CD66",
"j. c #43DD6B",
"k. c #47D56B",
"l. c #5ED76E",
"z. c #4CDF72",
"x. c #7DD97B",
"c. c #48E06F",
"v. c #4BE373",
"b. c #50E677",
"n. c #53E77A",
"m. c #5AE77E",
"M. c #55E97B",
"N. c #58EB7E",
"B. c #4DCA4A",
"V. c #898700",
"C. c #999700",
"Z. c #A28600",
"A. c #B9B600",
"S. c #A4A100",
"D. c #A1933D",
"F. c #85AF26",
"G. c #C48302",
"H. c #DA9201",
"J. c #D5940F",
"K. c #E49A05",
"L. c #E59F10",
"P. c #FFB306",
"I. c #E3A11B",
"U. c #F7AB0C",
"Y. c #F6B52E",
"T. c #F9BA3A",
"R. c #E7A724",
"E. c #D6A235",
"W. c #B8D00F",
"Q. c #CCC900",
"!. c #D5D300",
"~. c #DAD800",
"^. c #CAD307",
"/. c #E0DE00",
"(. c #D6E007",
"). c #E7E400",
"_. c #F1EF00",
"`. c #F5F201",
"'. c #FDFA07",
"]. c #FEFB11",
"[. c #E0E714",
"{. c #FFC339",
"}. c #FFC12D",
"|. c #FEFC26",
" X c #FFFD36",
".X c #BCA77E",
"XX c #D0AD51",
"oX c #CDAC66",
"OX c #E2BC69",
"+X c #FEC646",
"@X c #FFD15B",
"#X c #FFCC5B",
"$X c #FFFD4D",
"%X c #FFD669",
"&X c #FFD97A",
"*X c #FFFD6A",
"=X c #6FBD83",
"-X c #7BB981",
";X c #76C98C",
":X c #7ACF90",
">X c #75D38E",
",X c #5CEC82",
"<X c #62ED86",
"1X c #68ED8A",
"2X c #76E88A",
"3X c #61F186",
"4X c #65F38A",
"5X c #6AF48E",
"6X c #79EC93",
"7X c #6DF891",
"8X c #6FF491",
"9X c #74F395",
"0X c #72FB95",
"qX c #7BF59A",
"wX c #76FE99",
"eX c #7AFD9C",
"rX c #89BD88",
"tX c #A1A5A1",
"yX c #82DC99",
"uX c #99C290",
"iX c #AEC893",
"pX c #B7CB95",
"aX c #85E29D",
"sX c #81F89F",
"dX c #A1E39F",
"fX c #A1DCA0",
"gX c #89E8A1",
"hX c #84FAA3",
"jX c #89FBA6",
"kX c #8EFDAA",
"lX c #8EF2A8",
"zX c #92FDAE",
"xX c #96FFB1",
"cX c #A9EAAE",
"vX c #D9D199",
"bX c #FFDD82",
"nX c #EEDE9D",
"mX c #FFFE88",
"MX c #FDE391",
"NX c #D1C4A0",
"BX c #E3D1A1",
"VX c #FFFEA6",
"CX c #FFFEB6",
"ZX c #F3E4AB",
"AX c #BFF7CE",
"SX c #C4FAD2",
"DX c #C9FDD6",
"FX c #CCFFD9",
"GX c #D7F3D5",
"HX c #C0F2CE",
"JX c #E8F9E9",
"KX c #EFFDF3",
"LX c #F1FFF4",
"PX c #FEFEF7",
"IX c #FFFFE7",
"UX c None",
/* pixels */
"UXUXUXUXUXUXUXUXUXUXUXUXUXUXUXUXUXUXUXUXUXUXUXUXUXUXUXUXUXUXUXUXUXUXUXUXUXUXUXUXUXUXUXUXUXUXUXUX",
"UXUXUXUXUXUXUXUXUX                                                              UXUXUXUXUXUXUXUX",
"UXUXUXUXUXUXUX. tXPXKXJXJXJXJXLXLXLXLXLXLXLXLXLXLXKXLXKXLXKXLXKXKXKXKXKXKXKXJXAX4.. UXUXUXUXUXUX",
"UXUXUXUXUXUXUX2.GXGXcXdXdXdXfXDXFXFXFXFXFXFXFXFXFXFXDXDXDXSXSXDXSXSXSXSXHXAXAXcXv.v UXUXUXUXUXUX",
"UXUXUXUXUXUX  @.x.B.Y I I I K eXeXeXwXwXwXwX0X0X7X7X7X7X5X4X4X3X3X3X,XM.M.m.m.,Xg.>.  UXUXUXUXUX",
"UXUXUXUXUXUX  L $.Y I I I U K wXwXwXwXwXwX0X0X7X7X7X7X4X4X4X3X3X,X,XM.M.M.b.v.v.s.1.  UXUXUXUXUX",
"UXUXUXUXUXUX  L T I I I I I K wXwXwXwXwX0X0X7X7X7X7X4X4X4X3X3X,X,XM.M.M.v.v.v.j.s.1.  UXUXUXUXUX",
"UXUXUXUXUXUX  L $.U I I I I K wXeXeXeXeXwXeXeX0X7X7X5X5X5X4X,X,X,XN.N.M.M.v.v.j.s.1.  UXUXUXUXUX",
"UXUXUXUXUXUX  L O.U I I I I P eXeXjXzXxXkXzXzXzXkXjXjXjXjXqX3X,X,X1XqX9X,Xz.c.j.s.%.  UXUXUXUXUX",
"UXUXUXUXUXUX  L O.U I I I I T jXxX=X3.3.3.3.3.3.3.:XlX3.8.kXqX3X1XzX:X;X9Xv.j.k.u.%.O UXUXUXUXUX",
"UXUXUXUXUXUX  L O.U I I U U $.xXp   . b 3.3.3.3.3.:XxXc   v xXhXzX;XO yX9Xj.j.g.u.%.OXoXA UXUXUX",
"UXUXUXUXUXUX  L $.U I I U Y l.:X    =XxXxXxXxXxXkXjXxXlX*   7.xXaXO ;XzXm.j.g.g.u.%.B L.{.E.UXUX",
"UXUXUXUXUXUX  L T I I I I T 2X8.  . xXxXxXkXkXjXqX5X8XzX:X  o :X* 3.xX<Xj.g.g.d.<.( . @ C P.C UX",
"UXUXUXUXUXUX  L $.I I I I T 6X7.  O gX;X:X;X:X:XxX9X<X9XxX4.    b xX1Xz.j.g.f.p.y.%.  UXUXK.H.UX",
"UXUXUXUXUXUX  L T U I I I T qX7.  o gXp : : : : b hX<X,XhXxX*   b xX1Xj.g.f.d.p.y.(   UXUXI.H.UX",
"UXUXUXUXUXUX  L T U I I I T 6X8.  o xXxXxXxXxXxXxX9X,X8XxX3.* O   8.xX,Xg.d.i.y.;.f   UXUX+XC UX",
"UXUXUXUXUXUX  K $.U I L K T 2X=X  . xXxXhXhXhXqXqX1X9XzX=XO gX=X  O gXjXz.i.:.F.[.].'.~.D.I.< UX",
"UXUXUXUXUXUX  L T U L L K H l.:X    =XxXxXxXxXxXxXkXxXyXO ;XxXxXb   > zX1X,.W. X*XVX$X'.'.Z.. UX",
"UXUXUXUXUXUX  L T U L L G G @.xXb     c v v v v v ;XlX* 7.xX1XqXlX>   2.6X#.].mXIXPXVX|.'./.UXUX",
"UXUXUXUXUXUX  K O.L K H F F J eXxX:X3.3.3.3.3.3.3.gX6X:XzX,Xk.n.hXzX=X7.;XW.].VXPXPXCX|.`.).V.UX",
"UXUXUXUXUXUX  K +.P G G F D r 4X9XqXzXzXkXkXkXkXjXqXqX9X,Xk.g.g.z.<X6X9X5.~.'.$XVXCX*X]._.~.C.UX",
"UXUXUXUXUXUXx K +.H F F F S e 4X,X1X,X,X1X,X,X,X,Xv.z.v.g.g.f.d.d.d.f.d.:.W._.'.|.|.].`.).Q.V.UX",
"UXUXUXUXUXNXXXG o.G F D S S e 3X,X,X,X,Xn.b.v.v.j.j.j.g.g.f.f.d.p.i.t.y.:.F././.`.`.`.).!.A.UXUX",
"UXUXUXUXBXT.m G o.F F S r r q ,X,X,Xn.b.b.b.v.c.z.g.g.g.f.d.d.i.i.i.t.>.pXXXA.Q.!.~.!.Q.A.V.UXUX",
"UXUXUXvXY.M . D o.J S S r e 0 ,XN.M.n.b.v.c.c.c.j.g.g.f.d.d.p.i.t.,.rXbXI.m ; #.A.A.A.S.z UXUXUX",
"UXUX.X+XM     S / S S r e q 0 N.M.n.b.v.v.c.c.j.g.g.g.d.d.p.i.,.uXMXT.V 9 7 [ [ ! h + UXUXUXUXUX",
"UXUX@XC + UX  S / S r e e q 4 M.M.b.v.v.c.c.j.g.g.g.f.d.p.>.rXnX{.C j 6 [ q.9.*.X.E   UXUXUXUXUX",
"UXXXU.1 UXUX  r / S e e q q 4 M.b.v.v.c.c.j.j.j.g.g.u.6.iXbXY.C j 6 ~ q.:.0.9...' E   UXUXUXUXUX",
"UXY.G.UXUXUX  r ^ r e q 0 0 4 b.b.v.c.c.j.j.g.g.5.rXvX&XR.B , 7 ~ w.0.0.0.*.....' E   UXUXUXUXUX",
"UXU.G.UXUXUX  e ^ e w q 0 0 4 b.v.c.c.c.s.5.8.vX&XT.Z.k 9 s ;.r.q.q.0.0.*.*.....' E   UXUXUXUXUX",
"UXG.P.N UXUX  q ^ q 0 0 0 0 4 b.h.h.6.uXZXbXT.J.M , 6 f :.r.w.q.q.q.0.9.*.....| ' a   UXUXUXUXUX",
"UX, K.}.oXA > t f 5 w t h v n iXnXbX@XR.Z m j i s ;.t.r.r.e.q.q.0.0.9.*.....| X.' E   UXUXUXUXUX",
"UXUX- C L.{.@X&X&X&X&X&X%X+XY.J.Z M j 9 i ( ;.t.i.t.t.e.w.w.q.0.0.9.*.....| | } ] R   UXUXUXUXUX",
"UXUXUXUX@ < k M M B M m l < - p i ( 1.y.p.p.p.t.t.t.e.e.w.w.0.0.9.*.....| | } } ] a   UXUXUXUXUX",
"UXUXUXUXUXUX  % 6 % % 3 2 5 4 g.g.g.d.d.p.p.i.t.r.e.e.w.w.0.0.9.*.....| | } } { ) a   UXUXUXUXUX",
"UXUXUXUXUXUX  0 d 0 0 0 0 0 4 g.g.g.d.p.p.i.t.t.t.e.w.w.0.0.9.9.....| | } | { { ) a   UXUXUXUXUX",
"UXUXUXUXUXUX  4 d 0 0 0 0 0 4 f.g.p.p.i.i.t.r.e.e.w.q.q.9.9.*.....| | } } { { { ) a   UXUXUXUXUX",
"UXUXUXUXUXUX  4 d 0 0 0 0 0 4 f.p.p.p.i.t.t.r.e.w.q.q.0.9.*.......| | | { { } ` ) a   UXUXUXUXUX",
"UXUXUXUXUXUX  4 d w 0 0 0 0 4 d.p.i.i.t.t.r.e.w.q.q.0.9.*.*...| | | { } { { ` ` ) a   UXUXUXUXUX",
"UXUXUXUXUXUX  4 d 0 0 0 0 0 4 p.p.i.t.t.r.e.w.q.q.9.9.*.*...| | } } { { { ` ` ` ) a   UXUXUXUXUX",
"UXUXUXUXUXUX  4 d 0 0 0 0 0 4 i.t.t.t.r.e.e.q.q.0.9.*.......| | } } { { ` ` ` ` Q a   UXUXUXUXUX",
"UXUXUXUXUXUX  4 d 0 0 0 0 0 4 i.t.t.r.e.w.w.q.0.9.*.....| | } } { { { ` ` ` ` ` ) a   UXUXUXUXUX",
"UXUXUXUXUXUX  4 0 0 0 0 0 0 4 t.r.r.r.w.q.0.0.0.*.......| } } { { { ` ` ` ` ` _ Q y   UXUXUXUXUX",
"UXUXUXUXUXUXUX2 4 4 4 4 4 0 5 :.w.:.:.=.=.=.X.X.X.X. . .' ' { ] _ _ ) _ _ _ ) Q R 7   UXUXUXUXUX",
"UXUXUXUXUXUXUXX 2 2 2 2 2 2 3 ~ ~ ~ ! ! ! ! ! ! W W E E E R R R R R R R R y R y u .   UXUXUXUXUX",
"UXUXUXUXUXUXUXUX  X X X X X X = = = = = & # # # # # # # # # # # # # # # # # # $     UXUXUXUXUXUX",
"UXUXUXUXUXUXUXUXUX                                                                UXUXUXUXUXUXUX",
"UXUXUXUXUXUXUXUXUXUXUXUXUXUXUXUXUXUXUXUXUXUXUXUXUXUXUXUXUXUXUXUXUXUXUXUXUXUXUXUXUXUXUXUXUXUXUXUX"
};
