/* XPM */
static const char *ExwordTextLoader[] = {
/* columns rows colors chars-per-pixel */
"48 48 192 2 ",
"   c #020101",
".  c #090909",
"X  c #110F0F",
"o  c #141313",
"O  c #141A1A",
"+  c #1D1C1C",
"@  c #1B2122",
"#  c #252525",
"$  c #2B2624",
"%  c #272928",
"&  c #2D2C2C",
"*  c #332E2C",
"=  c #2A3B3C",
"-  c #343434",
";  c #3B3534",
":  c #393837",
">  c #363A3A",
",  c #3B3B3B",
"<  c #423F3E",
"1  c #46403E",
"2  c #313F40",
"3  c #324042",
"4  c #3C4344",
"5  c #3C494A",
"6  c #444444",
"7  c #4A4544",
"8  c #444E4E",
"9  c #4B4B4B",
"0  c #514E4D",
"q  c #504F50",
"w  c #545454",
"e  c #595756",
"r  c #545959",
"t  c #5B5B5B",
"y  c #476365",
"u  c #4B6567",
"i  c #436669",
"p  c #5D6465",
"a  c #516D6D",
"s  c #5D6B6C",
"d  c #636565",
"f  c #6A6A6A",
"g  c #6C7677",
"h  c #737373",
"j  c #7A7F7F",
"k  c #7F7F80",
"l  c #5F8689",
"z  c #698183",
"x  c #678C8F",
"c  c #698A8D",
"v  c #748586",
"b  c #7B8D8E",
"n  c #668F93",
"m  c #619195",
"M  c #699296",
"N  c #799EA0",
"B  c #74A9AE",
"V  c #79B1B6",
"C  c #7BB7BD",
"Z  c #858686",
"A  c #868688",
"S  c #859596",
"D  c #8B999A",
"F  c #8B8EA5",
"G  c #9798A4",
"H  c #999AA1",
"J  c #989BB1",
"K  c #83A4A7",
"L  c #84ACAF",
"P  c #82B7BB",
"I  c #9CB0B1",
"U  c #A3A4A6",
"Y  c #A6A6A8",
"T  c #A6A7B1",
"R  c #A7A8B4",
"E  c #AFB0BA",
"W  c #A3B8BA",
"Q  c #B3B3B4",
"!  c #949BC7",
"~  c #82BFC4",
"^  c #8FBEC2",
"/  c #98A2DF",
"(  c #A6ADDA",
")  c #ADB1D1",
"_  c #9EA7E6",
"`  c #9FA8E7",
"'  c #9FA8E8",
"]  c #A5ACE2",
"[  c #A8AFE0",
"{  c #A3ACEB",
"}  c #AAB1E6",
"|  c #ACB5EE",
" . c #B9BEE3",
".. c #B0B7E8",
"X. c #B3BAEC",
"o. c #A7B0F2",
"O. c #A9B2F3",
"+. c #ACB6F9",
"@. c #B3BBF2",
"#. c #B5BDFB",
"$. c #85C7CD",
"%. c #92C2C6",
"&. c #9BC4C8",
"*. c #9ECACD",
"=. c #92D6DC",
"-. c #99D6DC",
";. c #BCCCCD",
":. c #A0D8DD",
">. c #9BDFE5",
",. c #BDC1E3",
"<. c #BEC3EB",
"1. c #BBC2F7",
"2. c #B7C0FE",
"3. c #BCC4FD",
"4. c #9FE3E9",
"5. c #9FE8EF",
"6. c #96E9F0",
"7. c #9BECF3",
"8. c #A5E6EB",
"9. c #ABE7EC",
"0. c #A3E8EE",
"q. c #ADE9EE",
"w. c #B6E1E6",
"e. c #B4E9EE",
"r. c #BAEBEF",
"t. c #A3ECF3",
"y. c #AAECF2",
"u. c #B4EEF2",
"i. c #BCECF0",
"p. c #AFF1F6",
"a. c #A1F1F8",
"s. c #ACF2F8",
"d. c #BBF1F6",
"f. c #B0F3F9",
"g. c #BBF5FA",
"h. c #BBFFFF",
"j. c #C0C0C3",
"k. c #CBCBCC",
"l. c #CCCEDD",
"z. c #CFD0DF",
"x. c #C2DDDE",
"c. c #D0D1D3",
"v. c #D5D6DB",
"b. c #D7D8DC",
"n. c #C8CCE9",
"m. c #CFD2E5",
"M. c #D2D4E4",
"N. c #D6D8E3",
"B. c #DBDCE5",
"V. c #D4D7E8",
"C. c #D6D9EA",
"Z. c #DBDDED",
"A. c #C0C7F7",
"S. c #C1C7F8",
"D. c #C4CBFE",
"F. c #CCD2FE",
"G. c #DCDFF1",
"H. c #D0D5FE",
"J. c #D6DAFC",
"K. c #DBDFFE",
"L. c #CEE5E7",
"P. c #DFE0E8",
"I. c #D3E8E9",
"U. c #C3EEF2",
"Y. c #C8EFF2",
"T. c #DEE1F1",
"R. c #DFE2FC",
"E. c #C1F0F4",
"W. c #CCF1F4",
"Q. c #C2F6FA",
"!. c #C9F4F8",
"~. c #CEF9FD",
"^. c #D3F3F6",
"/. c #DAF4F7",
"(. c #D4FDFF",
"). c #DCFEFF",
"_. c #E0E0E1",
"`. c #E2E3E9",
"'. c #EAEAEA",
"]. c #E3E5F4",
"[. c #E7E8F6",
"{. c #E9EAF6",
"}. c #E3E6FD",
"|. c #E6E9FD",
" X c #EBEDFC",
".X c #EEF1FD",
"XX c #E4FCFD",
"oX c #F3F4F5",
"OX c #F2F4FE",
"+X c #F6F9FF",
"@X c #FDFDFF",
"#X c None",
/* pixels */
"t w w e w w w e w e w w w e w e w w w w e #X#X#X#X#X#X#X#X#X#X#X#X#X#X#X#X#X#X#X#X#X#X#X#X#X#X#X",
"w @X@X@X@X@X@X@X@X@X@X@X@X@X@X@X@X@XoXoXv.Z #X#X#X#X#X#X#X#X#X#X#X#X#X#X#X#X#X#X#X#X#X#X#X#X#X#X",
"w @X@X@X@X@X@X@X@X@X@X@X@X@X@X@X@X@XoXoX`.Y Q h #X#X#X#X#X#X#X#X#X#X#X#X#X#X#X#X#X#X#X#X#X#X#X#X",
"e @X@X@X@X@X@X@X@X@X@X@X@X@X@X@X@X@X@XoX`.Q c.Q Z #X#X#X#X#X#X#X#X#X#X#X#X#X#X#X#X#X#X#X#X#X#X#X",
"w @X@X@X}.K.K.K.R.R.R.J.J.R.R.R.K.K.K.K.n.R k._.Q k #X#X#X#X#X#X#X#X#X#X#X#X#X#X#X#X#X#X#X#X#X#X",
"e @X@X@XJ.<.,.,.,.,.,.,.,.,.,.,.,. .,. .) G k.'._.Q k #X#X#X#X#X#X#X#X#X#X#X#X#X#X#X#X#X#X#X#X#X",
"w @X@X@X.X|.|.|.{.|.|.{.|.|.{.|.|.|.|.|.C.R k.oX'._.Q k #X#X#X#X#X#X#X#X#X#X#X#X#X#X#X#X#X#X#X#X",
"w @X@X@XF.S.S.S.A.D.3.D.3.3.D.3.A.A.S.S.X.J k.@XoX'._.Q k #X#X#X#X#X#X#X#X#X#X#X#X#X#X#X#X#X#X#X",
"w @X@X@XOX X X.X.X X.X X.X.X.X.X X X X XT.E j.'.'.'.`._.Q #X#X#X#X#X#X#X#X#X#X#X#X#X#X#X#X#X#X#X",
"e @X@X@XF.D.D.D.D.D.D.D.D.D.3.D.D.D.D.3...! F H H H U Y Q Z #X#X#X#X#X#X#X#X#X#X#X#X#X#X#X#X#X#X",
"w @X@X@X X}.|.}.}.|.|.}.|.R.}.R.}.}.}.G.{.{.`.P.B.v.v.v.c.j.e #X#X#X#X#X#X#X#X#X#X#X#X#X#X#X#X#X",
"e @X@X@XD.O.| | O.O.| O.O.O.| | | O.o.{ G.@X+X@X+X@XoX{.{.v.w w t #X#X#X#X#X#X#X#X#X#X#X#X#X#X#X",
"w @X@X@XOX X X X X X X X{.{..X{. X|.{. X|. X X.X X X XoXoXN.0 : , , 6 6 9 0 t t #X#X#X#X#X#X#X#X",
"w @X@X@XF.3.3.3.1.3.3.3.3.3.3.3.3.3.3.3.A.#.@.@...[  .+XOXB.w - % # $ & * < < 2 7 7 9 w e t #X#X",
"w @X@X@XOX.XOXOXOXOX.XOX.X.X.XOXOX X XOX.X X.X X|.+X+XOX+XZ.d I.;.I b s 8 - % # $ & : 6 6 4 w t ",
"e @X@X@XF.3.3.3.3.3.3.3.3.3.3.3.3.3.3.3.3.3.3.#.D.+X+XOX+XP.d XXXX).).(.!.w.*.L c a 2 o % 6 7 q ",
"w @X@X@X.X}. X}.|.|.}.}.|.}.}.|.}.}.}.}.}.}.}.}.}.K.}.OXOXP.d /.^.^.Y.Y.U.U.i.g.g.h.M   # 9 4 t ",
"w @X@X@XD.@.@.@.@.X.@.@.X.@.@.@.@.@.X.@.@.@.@...@.}  .OXOXP.d /.^.^.W.Y.U.r.e.e.9.f.y   - 9 6 #X",
"w @X@X+X+XOXOXOXOXOXOXOXOX.X X XOX X X.X X X X X X|.|.oXoXP.d ^.^.^.Y.U.i.r.e.e.9.9.=   4 9 7 #X",
"e +X@X@XD.3.3.3.3.2.3.3.2.#.@.@.@.@.@.@.@.@.@.@.@.| n. X XZ.d ^.Y.Y.U.U.i.e.e.9.y.-.O X 7 9 9 #X",
"w @X+X@X+XOXOXOXOXOXOXOX.X.X+X+X+XOXOXOX+XOXOXOX.XOXoX X.XZ.d ^.Y.U.U.U.r.u.e.9.y.P   + 9 9 w #X",
"w @X@X+XD.2.#.#.#.#.#.#.#.S.OX+X+XOXOXOXOXOX.X.X.XOX XoX XB.d Y.U.U.U.e.e.q.9.8.p.M   % 9 7 t #X",
"e @X+X+X.X X X X X X X X X|.|..X X X X X X|. X X|.[.[. X XN.p U.U.U.i.e.e.e.9.8.s.i   : 9 6 #X#X",
"w +X@X+XD.#.@.@.#.@.@.#.@.@.@.| | X.O...| | ..| } ]  . X XN.p U.i.i.e.e.9.9.8.8.5.=   6 q 9 #X#X",
"w +X+X+XOXOXOXOXOXOX.X.XOX.X.X.X.X X X X X X X{.|. X X{.{.B.d r.i.u.e.9.9.9.8.5.>.O X 9 9 9 #X#X",
"e +X+XOXF.3.3.3.3.2.3.3.3.3.2.3.2.3.3.3.2.3.2.2.S.{.{.|.{.N.d g.i.u.9.9.8.8.4.t.C   + q 9 w #X#X",
"e +X+X+X X X|. X|. X|.|.|.}.|.|.}.}.}.}.].}.R.}.].G.R.[.[.M.r N ^ >.q.p.s.t.0.a.m   & w 9 e #X#X",
"w +X+X+X3.O.O.o.o.o.o.| o.o.o.o.o.o.o.o.{ { ` ` _ _ ( [.[.M.w * & - 5 u l B $.6.i   : w 6 #X#X#X",
"e +X+XOXOX X X X X X X X|.{.|.|.[.|.|.].T.{. X{.[.[.[.].].z.w 7 9 9 7 , ; & & 2 @ . 6 w 7 #X#X#X",
"e OXOX+XD.#.#.#.#.#.@.#.#.#.@.@.@.@.#.@.| R.[.[.[.].].].`.M.w , : : : 6 9 9 w 9 6 7 q q 2 w d #X",
"w OXOXOXOXOXOX XoX X X X X X X{. X[.|.[.}.].].}.].T.T.].T.z.q 6 9 9 9 9 , : : > 6 9 q q , 6 w #X",
"e OXOXOXD.#.#.#.2.2.2.2.#.2.2.#.2.#.2.#.#.#.#.#.#.+...T.T.z.q % @ # % : , 9 q 4 9 9 6 - - : 9 #X",
"w OXOXOX[.Z.Z.Z.Z.Z.P.Z.B.B.B.C.C.V.V.N.V.M.m.m.M.m.C.G.T.l.q w 7 7 2 : & # # # & , 6 + # : e #X",
"w OX.X.X.XoXoX X X X{. X|. X|.[.[.[.].].].].].].G.T.].Z.G.l.w 4 9 9 9 9 w q 9 6 > - # + # 9 #X#X",
"e .X.X.X X X.X X X{.{.{.{.[.{.[.[.].].].].T.T.T.T.Z.Z.Z.Z.l.w d d 9 9 w 9 7 9 q w 9 q # 6 #X#X#X",
"w .X XoXoX X X X X X X{.[.[.[.[.].].].T.T.T.T.T.G.G.G.G.G.z.w t w 9 h f r d d w 6 w w > #X#X#X#X",
"t e e w w e w w w w w w w w e w w w r w w w w w w w w w w w q e f w w w w f d w w w : t #X#X#X#X",
"#Xt t t e e r q 7 1 * $ $ $ : : - > 4 : - & 9 0 : w r 7 7 q 9 e d 9 f h t 7 7 q w , r #X#X#X#X#X",
"#X#X#X#X#X#X#X7 e 7 7 7 < : 6 , 7 ~ 4.%.K v p 9 , 8 7 4 f f q t d e r t w 9 w r 6 9 #X#X#X#X#X#X",
"#X#X#X#X#X#X9 6 9 w 0 9 , 6 6 7 V 7.8.u.Q.(.^.L.k.U Z t 6 9 9 p d 0 f h t w e 9 6 #X#X#X#X#X#X#X",
"#X#X#X#X#X#Xh t w 9 9 9 6 7 6 x 6.t.p.r.U.W.^.XX+X@XoXf 9 9 0 0 9 9 e t w w w , #X#X#X#X#X#X#X#X",
"#X#X#X#X#X#X#Xw 7 9 w r r w w r s z B &.w.W.(.XXXXXXv 7 q w e 7 < ; : 9 w w , #X#X#X#X#X#X#X#X#X",
"#X#X#X#X#X#X#X#X#X#X#X7 6 9 q w w 0 0 w t g D W x.D 7 w w t < ; 7 1 * 9 t , w #X#X#X#X#X#X#X#X#X",
"#X#X#X#X#X#X#X#X#X#X#X#X#X#X#X6 6 7 9 w w w w w t w w w w w 0 ; < 7 7 t 7 9 #X#X#X#X#X#X#X#X#X#X",
"#X#X#X#X#X#X#X#X#X#X#X#X#X#X#X#X#X#X#X9 7 6 7 q w e t t t t e e 0 9 t 9 6 #X#X#X#X#X#X#X#X#X#X#X",
"#X#X#X#X#X#X#X#X#X#X#X#X#X#X#X#X#X#X#X#X#X#X#Xw 6 6 6 9 w w t p d f e , #X#X#X#X#X#X#X#X#X#X#X#X",
"#X#X#X#X#X#X#X#X#X#X#X#X#X#X#X#X#X#X#X#X#X#X#X#X#X#X#Xw 9 6 6 6 e Z w t #X#X#X#X#X#X#X#X#X#X#X#X",
"#X#X#X#X#X#X#X#X#X#X#X#X#X#X#X#X#X#X#X#X#X#X#X#X#X#X#X#X#X#X#Xe 9 7 t #X#X#X#X#X#X#X#X#X#X#X#X#X"
};
